<svg xmlns="http://www.w3.org/2000/svg" xmlns:xlink="http://www.w3.org/1999/xlink" version="1.1" x="0px" y="0px" viewBox="0 0 100 125" style="enable-background:new 0 0 100 100;" xml:space="preserve"><path d="M50,10c-22.1,0-40,17.9-40,40s17.9,40,40,40s40-17.9,40-40S72.1,10,50,10z M57.9,76.2L49,89c-0.5,0-1.1,0-1.6-0.1l8.2-11.7  C56.3,76.9,57.1,76.6,57.9,76.2z M16.3,69.6c0-0.1-0.1-0.2-0.1-0.3C11.2,60.6,14,48.9,22.2,39l0.4,0.2l0.2-0.5  c0.1-0.2,0.2-0.5,0.3-0.7c0.8-0.9,1.7-1.8,2.6-2.7c-0.8,1.2-1.4,2.5-2,3.9l-0.2,0.5l6.9,3l0.2-0.5c1-2.5,2.5-4.7,4.4-6.6l0.4-0.4  l-4.4-4.3c0.3-0.2,0.6-0.4,0.9-0.7l4,4.5l0.4-0.3c1.8-1.6,3.9-2.9,6.1-3.8l0.5-0.2l-2.2-5.4c17.6-8.4,36.3-6.3,43.2,5.5  c0,0.1,0.1,0.2,0.1,0.2c5,8.8,2.2,20.6-6.2,30.6l-0.1,0l-0.1,0.2c-1.2,1.4-2.5,2.8-3.8,4c1-1.5,1.8-3,2.4-4.6l0.1-0.2l-6.4-2.8  l-0.1,0.2c-1,2.5-2.5,4.8-4.4,6.7L65.1,65l4.3,4.1c-0.4,0.3-0.9,0.7-1.3,1l-3.8-4.3L64,65.9c-1.8,1.6-3.9,2.9-6.2,3.8l-0.2,0.1  l2.1,5.2C42.1,83.6,23.2,81.4,16.3,69.6z M22,37.8l-3.7-1.6c1.6-3.6,3.8-7,6.5-9.8l2.9,2.8C25.4,31.7,23.4,34.6,22,37.8L22,37.8z   M33.9,35.1c-1.7,1.8-3,3.9-4,6.1L24.8,39c1.3-2.9,3-5.5,5.1-7.7L33.9,35.1z M39.4,24.6l2,5.1c-2,0.9-3.9,2-5.6,3.4l-3.7-4.1  C34.3,27.2,36.8,25.7,39.4,24.6L39.4,24.6z M43,23.4L51.6,11c1.1,0,2.1,0.1,3.2,0.3l-7.3,10.4C46,22.2,44.5,22.8,43,23.4L43,23.4z   M74.6,73.4L72,70.9l0.8-1.1c1.5-1.7,2.8-3.5,3.8-5.5l1.6-2.3l3.3,1.4L74.6,73.4z M82,63.7c-1.6,3.8-3.9,7.3-6.8,10.3l-0.2-0.2  L82,63.7z M72.3,76.6c-2.3,1.9-4.9,3.6-7.6,4.8l5.7-8.1l2.4,2.7L72.3,76.6z M70.6,72.9l1.1-1.6l2.5,2.4L73,75.6L70.6,72.9z M86.7,42  l1.1-1.6c0.5,1.9,0.8,3.8,1,5.7l-7,10C84.5,51.9,86.2,47,86.7,42z M86.8,41c0.1-1.8-0.1-3.5-0.4-5.3c0.5,1.3,1,2.7,1.3,4L86.8,41z   M78.9,60.3l-0.8,1.1l-0.1,0C78.3,61,78.6,60.7,78.9,60.3z M69.8,68.8l-4-3.8c1.8-1.9,3.2-4.1,4.3-6.4l5.5,2.4  c-0.9,2.2-2.2,4.3-3.6,6.1C71.2,67.6,70.5,68.2,69.8,68.8L69.8,68.8z M70.6,68.5c-0.2,0.2-0.3,0.4-0.5,0.6L70,69  C70.2,68.9,70.4,68.7,70.6,68.5z M58.3,70.1c2.2-0.9,4.2-2.1,5.9-3.7l3.5,3.9c-1.4,1-2.8,1.9-4.3,2.8c-1.1,0.6-2.1,1.2-3.2,1.7  L58.3,70.1z M63.5,73.4c0.4-0.2,0.7-0.4,1.1-0.6l-1,1.4c-1,0.6-2,1.1-3.1,1.5l-0.2-0.6C61.3,74.6,62.4,74,63.5,73.4z M65.7,72.1  c0.8-0.5,1.5-1,2.2-1.5l0.3,0.4c-1.1,1-2.3,1.9-3.6,2.7L65.7,72.1z M68.7,71.2l0.2-0.2l-0.6-0.7c0.4-0.3,0.9-0.7,1.3-1l0.5,0.5  l0.2-0.2c0.8-0.9,1.6-1.8,2.4-2.8c1.5-1.3,3-2.8,4.3-4.3c-0.2,0.5-0.5,1-0.8,1.5l-3.9,5.6c-0.3,0.3-0.6,0.6-0.9,0.9l-0.2,0.2  l0.2,0.1l-1.1,1.5l-0.4-0.4l-0.2,0.2c-2.3,2-4.8,3.6-7.6,4.9l1.8-2.6C65.6,73.6,67.2,72.4,68.7,71.2z M61.5,78c3-1.3,5.8-3,8.3-5.2  L70,73l-6.3,8.9c-0.2,0.1-0.4,0.2-0.6,0.3l-1.6-4.1L61.5,78z M62.8,82.8l0.2-0.1c0,0,0.1,0,0.1-0.1l-3.6,5.1c-1.9,0.5-3.7,0.8-5.7,1  l7.2-10.2L62.8,82.8z M64,82.3c2.5-1.1,5-2.5,7.2-4.2L66,85.6c-1.8,0.8-3.7,1.5-5.7,2L64,82.3z M72.6,77c0.3-0.2,0.5-0.4,0.8-0.7  l0.2-0.2L73.3,76l1.3-1.8l0.5,0.5l0.2-0.2c3.1-3.1,5.5-6.8,7.2-10.9l0.1-0.2l-0.4-0.2l6.5-9.3c-0.2,2.4-0.7,4.9-1.4,7.2L73.2,81.3  c-2,1.5-4.1,2.8-6.3,3.8L72.6,77z M81.8,63l-3.3-1.4l10.3-14.7c0.1,1,0.1,2.1,0.1,3.1c0,1,0,1.9-0.1,2.9L81.8,63z M80.4,25.6  c-7.2-6.5-19.5-8-32.2-4.1l7.1-10.1C65.2,12.7,74.2,17.8,80.4,25.6z M51,11l-8.9,12.8c-0.6,0.2-1.1,0.5-1.7,0.8l-0.5-1.2l-0.5,0.2  c-0.2,0.1-0.3,0.1-0.5,0.2l8.9-12.7c0.7,0,1.4-0.1,2.1-0.1C50.3,11,50.7,11,51,11z M47.2,11.1l-7.8,11.1l-2.1-5.4L36.9,17  c-3.8,1.5-7.3,3.7-10.4,6.4l-0.4,0.3l4,4.5l0.4-0.3c2.5-2.3,5.5-4.1,8.6-5.3l0.1-0.1l-1.1,1.6c-2.5,1.2-4.9,2.7-7,4.5L30.7,29  l0.8,0.9c-0.3,0.2-0.6,0.5-0.9,0.7l-0.7-0.7l-0.3,0.4c-1.1,1.2-2.2,2.5-3.1,3.8c-1,0.9-1.9,1.9-2.8,2.8c1.3-2.7,3.1-5.2,5.2-7.3  l0.4-0.4L24.8,25l-0.3,0.4c-3.1,3.2-5.5,6.9-7.2,11L17,36.8l4.8,2.1C15.1,47,12,56.3,13.7,64.2c-7.8-20.1,2.1-42.7,22.1-50.5  C39.4,12.3,43.3,11.4,47.2,11.1z M38.3,21.9c-2.9,1.2-5.7,2.9-8.1,5l-2.7-3c2.8-2.4,5.9-4.3,9.3-5.7L38.3,21.9z M19.6,74.4  c7.8,7,21.4,8.2,35.1,3.2l-7.9,11.3C36.1,88,26.2,82.7,19.6,74.4z M49.6,89l9.2-13.2c0.3-0.2,0.7-0.3,1-0.5l0.4,1l0.2-0.1  c0.8-0.3,1.7-0.7,2.5-1.1l-1.7,2.4c-0.1,0-0.1,0.1-0.2,0.1l-0.2,0.1l0.1,0.3l-7.6,10.8C52.2,88.9,51.1,89,50,89  C49.9,89,49.7,89,49.6,89z M74.6,80.3l12.3-17.6C84.5,69.6,80.2,75.7,74.6,80.3z"/><text x="0" y="115" fill="#000000" font-size="5px" font-weight="bold" font-family="'Helvetica Neue', Helvetica, Arial-Unicode, Arial, Sans-serif">Created by DaanDirk</text></svg>